<svg xmlns="http://www.w3.org/2000/svg" xmlns:xlink="http://www.w3.org/1999/xlink" xml:space="preserve" width="240px" height="90px" style="shape-rendering:geometricPrecision; text-rendering:geometricPrecision; image-rendering:optimizeQuality; fill-rule:evenodd; clip-rule:evenodd" viewBox="0 0 240 90"> <defs>  <style type="text/css">       .fil2 {fill:#FFC312}    .fil0 {fill:black;fill-rule:nonzero}    .fil1 {fill:#F76904;fill-rule:nonzero}     </style> </defs> <g id="Layer_x0020_1">  <metadata id="CorelCorpID_0Corel-Layer"></metadata>  <path class="fil0" d="M119.35 51.1c0,6.33 -4.8,10.43 -13.06,10.43 -8.58,0 -15.04,-4.24 -15.04,-11.58l8.31 0c0,3.51 3.04,4.8 6.73,4.8 3.1,0 4.76,-1.2 4.76,-2.86 0,-2.63 -3.56,-3.23 -8.21,-4.62 -5.68,-1.66 -10.66,-4.1 -10.66,-10.19 0,-7.2 5.63,-10.01 12.73,-10.01 7.71,0 13.75,4.06 13.98,10.75l-8.3 0c-0.37,-2.5 -2.5,-3.97 -5.68,-3.97 -2.49,0 -4.43,0.78 -4.43,2.63 0,2.03 2.08,2.67 6.23,3.83 6.23,1.7 12.64,3.73 12.64,10.79z"></path>  <path class="fil0" d="M145.7 44.27c0,-5.72 -2.03,-10.42 -8.03,-10.42 -6.05,0 -8.03,4.7 -8.03,10.42 0,5.77 1.98,10.48 8.03,10.48 6,0 8.03,-4.71 8.03,-10.48zm-24.36 0c0,-9.91 5.86,-17.2 16.33,-17.2 10.38,0 16.33,7.29 16.33,17.2 0,9.97 -5.95,17.26 -16.33,17.26 -10.47,0 -16.33,-7.29 -16.33,-17.26z"></path>  <polygon class="fil0" points="165.49,27.8 165.49,54.01 180.16,54.01 180.16,60.79 157.18,60.79 157.18,27.8 "></polygon>  <polygon class="fil0" points="205.95,40.45 205.95,47.23 191.56,47.23 191.56,54.01 208.54,54.01 208.54,60.79 183.25,60.79 183.25,27.8 208.26,27.8 208.26,34.59 191.56,34.59 191.56,40.45 "></polygon>  <path class="fil0" d="M220.53 42.52l5.63 0c3.32,0 5.08,-1.2 5.08,-3.97 0,-2.76 -1.76,-3.96 -5.08,-3.96l-5.63 0 0 7.93zm-8.3 -14.72l15.54 0c7.34,0 11.77,3.37 11.77,9.6 0,4.38 -2.58,7.15 -6.69,8.07l0 0.1c8.26,1.43 5.26,14.21 7.15,14.76l0 0.46 -8.63 0c-1.61,-1.38 1.39,-11.49 -5.67,-11.49l-5.17 0 0 11.49 -8.3 0 0 -32.99z"></path>  <path class="fil1" d="M21.63 34.18c0,5.97 4.85,10.82 10.82,10.82l0 21.63c-17.89,0 -32.45,-14.56 -32.45,-32.45 0,-17.89 14.56,-32.44 32.45,-32.44l0 21.63c-5.97,0 -10.82,4.85 -10.82,10.81z"></path>  <path class="fil1" d="M64.9 55.82c0,17.89 -14.56,32.44 -32.45,32.44l0 -21.63c5.96,0 10.81,-4.85 10.81,-10.81 0,-5.97 -4.85,-10.82 -10.81,-10.82l0 -21.63c17.89,0 32.45,14.55 32.45,32.45z"></path>  <path class="fil2" d="M32.45 66.63c5.96,0 10.81,-4.85 10.81,-10.81 0,-5.97 -4.85,-10.82 -10.81,-10.82l0 21.63z"></path>  <path class="fil2" d="M21.63 34.18c0,5.97 4.85,10.82 10.82,10.82l0 -21.63c-5.97,0 -10.82,4.85 -10.82,10.81z"></path> </g></svg>