<svg width="1689" height="500" viewBox="0 0 1689 500" fill="none" xmlns="http://www.w3.org/2000/svg">
<g clip-path="url(#clip0_2566_2428)">
<path d="M490.932 249.989C490.932 383.021 383.091 490.862 250.059 490.862C117.026 490.862 9.18579 383.021 9.18579 249.989C9.18579 116.956 117.026 9.1156 250.059 9.1156C383.091 9.1156 490.932 116.956 490.932 249.989Z" fill="#FCC419" stroke="#FF0000" stroke-width="0.214338"/>
<path d="M234.281 499.343C210.698 496.982 196.886 494.546 180.667 489.888C155.665 482.708 132.49 471.905 110.533 457.197C81.7036 437.883 56.2644 411.625 37.4619 381.774C31.2385 371.894 20.3966 350.007 16.0879 338.625C9.03172 319.985 3.91266 298.953 1.27593 277.772C-0.240292 265.589 -0.416089 236.572 0.954562 224.738C7.91218 164.668 31.8623 114.326 73.1076 73.0818C114.353 31.8365 164.693 7.88627 224.764 0.928651C236.598 -0.442 265.615 -0.26612 277.798 1.25006C308.654 5.09045 334.606 12.8672 361.428 26.3099C385.78 38.5151 404.013 51.3853 422.886 69.6915C432.148 78.6752 443.018 90.6459 443.018 91.8616C443.018 92.3152 443.45 92.8522 443.979 93.055C445.233 93.5362 452.099 102.682 458.708 112.676C478.4 142.452 492.009 178.284 497.01 213.515C498.616 224.832 500.132 242.33 500.132 249.551C500.132 260.442 497.804 282.818 495.286 296.125C478.618 384.229 416.11 456.546 331.174 485.986C301.064 496.424 260.714 501.983 234.285 499.338L234.281 499.343ZM277.796 476.677C304.346 473.246 326.856 466.436 350.887 454.565C396.63 431.969 431.995 396.603 454.589 350.864C466.533 326.684 473.257 304.388 476.789 277.249C478.49 264.188 478.468 234.191 476.749 221.682C469.663 170.11 448.633 126.391 413.543 90.2871C362.2 37.4593 289.614 12.8986 216.257 23.5251C141.276 34.3888 76.2072 82.5143 43.2447 151.486C19.5087 201.15 14.633 258.621 29.6259 312.015C51.5676 390.158 115.738 452.317 194.337 471.565C207.001 474.667 216.522 476.198 233.937 477.934C240.227 478.561 269.754 477.713 277.792 476.674L277.796 476.677Z" fill="black"/>
</g>
<path d="M617.95 220.925C617.2 222.125 616.4 223.025 615.55 223.625C614.75 224.225 613.7 224.525 612.4 224.525C611.25 224.525 610 224.175 608.65 223.475C607.35 222.725 605.85 221.9 604.15 221C602.5 220.1 600.6 219.3 598.45 218.6C596.3 217.85 593.85 217.475 591.1 217.475C586.35 217.475 582.8 218.5 580.45 220.55C578.15 222.55 577 225.275 577 228.725C577 230.925 577.7 232.75 579.1 234.2C580.5 235.65 582.325 236.9 584.575 237.95C586.875 239 589.475 239.975 592.375 240.875C595.325 241.725 598.325 242.7 601.375 243.8C604.425 244.85 607.4 246.1 610.3 247.55C613.25 249 615.85 250.85 618.1 253.1C620.4 255.35 622.25 258.1 623.65 261.35C625.05 264.55 625.75 268.425 625.75 272.975C625.75 278.025 624.875 282.75 623.125 287.15C621.375 291.55 618.825 295.4 615.475 298.7C612.175 301.95 608.075 304.525 603.175 306.425C598.325 308.275 592.8 309.2 586.6 309.2C583.2 309.2 579.725 308.85 576.175 308.15C572.675 307.45 569.275 306.475 565.975 305.225C562.675 303.925 559.575 302.4 556.675 300.65C553.775 298.9 551.25 296.95 549.1 294.8L556.6 282.95C557.2 282.1 557.975 281.4 558.925 280.85C559.925 280.25 561 279.95 562.15 279.95C563.65 279.95 565.15 280.425 566.65 281.375C568.2 282.325 569.925 283.375 571.825 284.525C573.775 285.675 576 286.725 578.5 287.675C581 288.625 583.95 289.1 587.35 289.1C591.95 289.1 595.525 288.1 598.075 286.1C600.625 284.05 601.9 280.825 601.9 276.425C601.9 273.875 601.2 271.8 599.8 270.2C598.4 268.6 596.55 267.275 594.25 266.225C592 265.175 589.425 264.25 586.525 263.45C583.625 262.65 580.65 261.775 577.6 260.825C574.55 259.825 571.575 258.625 568.675 257.225C565.775 255.775 563.175 253.9 560.875 251.6C558.625 249.25 556.8 246.35 555.4 242.9C554 239.4 553.3 235.1 553.3 230C553.3 225.9 554.125 221.9 555.775 218C557.425 214.1 559.85 210.625 563.05 207.575C566.25 204.525 570.175 202.1 574.825 200.3C579.475 198.45 584.8 197.525 590.8 197.525C594.15 197.525 597.4 197.8 600.55 198.35C603.75 198.85 606.775 199.625 609.625 200.675C612.475 201.675 615.125 202.9 617.575 204.35C620.075 205.75 622.3 207.35 624.25 209.15L617.95 220.925ZM750.882 253.325C750.882 261.225 749.507 268.575 746.757 275.375C744.057 282.175 740.232 288.1 735.282 293.15C730.332 298.15 724.357 302.075 717.357 304.925C710.407 307.775 702.682 309.2 694.182 309.2C685.682 309.2 677.932 307.775 670.932 304.925C663.932 302.075 657.932 298.15 652.932 293.15C647.982 288.1 644.132 282.175 641.382 275.375C638.682 268.575 637.332 261.225 637.332 253.325C637.332 245.425 638.682 238.075 641.382 231.275C644.132 224.475 647.982 218.575 652.932 213.575C657.932 208.575 663.932 204.65 670.932 201.8C677.932 198.95 685.682 197.525 694.182 197.525C702.682 197.525 710.407 198.975 717.357 201.875C724.357 204.725 730.332 208.65 735.282 213.65C740.232 218.65 744.057 224.55 746.757 231.35C749.507 238.15 750.882 245.475 750.882 253.325ZM724.932 253.325C724.932 247.925 724.232 243.075 722.832 238.775C721.432 234.425 719.407 230.75 716.757 227.75C714.157 224.75 710.957 222.45 707.157 220.85C703.357 219.25 699.032 218.45 694.182 218.45C689.282 218.45 684.907 219.25 681.057 220.85C677.257 222.45 674.032 224.75 671.382 227.75C668.782 230.75 666.782 234.425 665.382 238.775C663.982 243.075 663.282 247.925 663.282 253.325C663.282 258.775 663.982 263.675 665.382 268.025C666.782 272.325 668.782 275.975 671.382 278.975C674.032 281.975 677.257 284.275 681.057 285.875C684.907 287.425 689.282 288.2 694.182 288.2C699.032 288.2 703.357 287.425 707.157 285.875C710.957 284.275 714.157 281.975 716.757 278.975C719.407 275.975 721.432 272.325 722.832 268.025C724.232 263.675 724.932 258.775 724.932 253.325ZM834.65 287.75V308H768.8V198.725H794.15V287.75H834.65ZM876.108 308H850.608V198.725H876.108V308ZM999.34 253.325C999.34 261.225 997.965 268.525 995.215 275.225C992.515 281.875 988.69 287.65 983.74 292.55C978.79 297.4 972.815 301.2 965.815 303.95C958.865 306.65 951.14 308 942.64 308H900.19V198.725H942.64C951.14 198.725 958.865 200.1 965.815 202.85C972.815 205.6 978.79 209.4 983.74 214.25C988.69 219.1 992.515 224.875 995.215 231.575C997.965 238.225 999.34 245.475 999.34 253.325ZM973.39 253.325C973.39 247.925 972.69 243.05 971.29 238.7C969.89 234.35 967.865 230.675 965.215 227.675C962.615 224.625 959.415 222.3 955.615 220.7C951.815 219.05 947.49 218.225 942.64 218.225H925.69V288.5H942.64C947.49 288.5 951.815 287.7 955.615 286.1C959.415 284.45 962.615 282.125 965.215 279.125C967.865 276.075 969.89 272.375 971.29 268.025C972.69 263.675 973.39 258.775 973.39 253.325ZM1107.52 251.375H1146.37V297.5C1140.77 301.6 1134.79 304.575 1128.44 306.425C1122.14 308.275 1115.54 309.2 1108.64 309.2C1099.64 309.2 1091.44 307.8 1084.04 305C1076.69 302.15 1070.39 298.25 1065.14 293.3C1059.89 288.3 1055.84 282.4 1052.99 275.6C1050.14 268.75 1048.72 261.325 1048.72 253.325C1048.72 245.175 1050.07 237.7 1052.77 230.9C1055.47 224.05 1059.32 218.15 1064.32 213.2C1069.37 208.25 1075.44 204.4 1082.54 201.65C1089.69 198.9 1097.67 197.525 1106.47 197.525C1111.02 197.525 1115.29 197.9 1119.29 198.65C1123.29 199.4 1126.97 200.425 1130.32 201.725C1133.72 203.025 1136.82 204.575 1139.62 206.375C1142.42 208.175 1144.92 210.125 1147.12 212.225L1139.77 223.4C1138.62 225.15 1137.12 226.225 1135.27 226.625C1133.47 227.025 1131.52 226.575 1129.42 225.275C1127.42 224.075 1125.52 223.05 1123.72 222.2C1121.97 221.3 1120.17 220.575 1118.32 220.025C1116.47 219.475 1114.52 219.075 1112.47 218.825C1110.42 218.575 1108.12 218.45 1105.57 218.45C1100.82 218.45 1096.54 219.3 1092.74 221C1088.94 222.65 1085.69 225 1082.99 228.05C1080.34 231.1 1078.29 234.775 1076.84 239.075C1075.39 243.325 1074.67 248.075 1074.67 253.325C1074.67 259.125 1075.47 264.275 1077.07 268.775C1078.67 273.275 1080.92 277.075 1083.82 280.175C1086.77 283.275 1090.27 285.65 1094.32 287.3C1098.42 288.9 1102.94 289.7 1107.89 289.7C1110.94 289.7 1113.69 289.4 1116.14 288.8C1118.64 288.2 1121.07 287.4 1123.42 286.4V269.825H1112.62C1111.02 269.825 1109.77 269.4 1108.87 268.55C1107.97 267.7 1107.52 266.625 1107.52 265.325V251.375ZM1222.56 266.225L1212.43 236.3C1211.68 234.4 1210.88 232.175 1210.03 229.625C1209.18 227.025 1208.33 224.225 1207.48 221.225C1206.73 224.275 1205.93 227.1 1205.08 229.7C1204.23 232.3 1203.43 234.55 1202.68 236.45L1192.63 266.225H1222.56ZM1262.83 308H1243.18C1240.98 308 1239.21 307.5 1237.86 306.5C1236.51 305.45 1235.48 304.125 1234.78 302.525L1228.33 283.475H1186.78L1180.33 302.525C1179.78 303.925 1178.78 305.2 1177.33 306.35C1175.93 307.45 1174.18 308 1172.08 308H1152.28L1194.58 198.725H1220.53L1262.83 308ZM1310 250.1C1313.45 250.1 1316.37 249.675 1318.77 248.825C1321.22 247.925 1323.22 246.7 1324.77 245.15C1326.32 243.6 1327.45 241.8 1328.15 239.75C1328.85 237.65 1329.2 235.4 1329.2 233C1329.2 228.2 1327.62 224.45 1324.47 221.75C1321.37 219.05 1316.55 217.7 1310 217.7H1299.8V250.1H1310ZM1363.85 308H1340.9C1336.65 308 1333.6 306.4 1331.75 303.2L1313.6 271.475C1312.75 270.125 1311.8 269.15 1310.75 268.55C1309.7 267.9 1308.2 267.575 1306.25 267.575H1299.8V308H1274.45V198.725H1310C1317.9 198.725 1324.62 199.55 1330.17 201.2C1335.77 202.8 1340.32 205.05 1343.82 207.95C1347.37 210.85 1349.95 214.275 1351.55 218.225C1353.15 222.175 1353.95 226.475 1353.95 231.125C1353.95 234.675 1353.47 238.025 1352.52 241.175C1351.57 244.325 1350.17 247.25 1348.32 249.95C1346.47 252.6 1344.17 254.975 1341.42 257.075C1338.72 259.175 1335.6 260.9 1332.05 262.25C1333.7 263.1 1335.25 264.175 1336.7 265.475C1338.15 266.725 1339.45 268.225 1340.6 269.975L1363.85 308ZM1475.18 253.325C1475.18 261.225 1473.81 268.525 1471.06 275.225C1468.36 281.875 1464.53 287.65 1459.58 292.55C1454.63 297.4 1448.66 301.2 1441.66 303.95C1434.71 306.65 1426.98 308 1418.48 308H1376.03V198.725H1418.48C1426.98 198.725 1434.71 200.1 1441.66 202.85C1448.66 205.6 1454.63 209.4 1459.58 214.25C1464.53 219.1 1468.36 224.875 1471.06 231.575C1473.81 238.225 1475.18 245.475 1475.18 253.325ZM1449.23 253.325C1449.23 247.925 1448.53 243.05 1447.13 238.7C1445.73 234.35 1443.71 230.675 1441.06 227.675C1438.46 224.625 1435.26 222.3 1431.46 220.7C1427.66 219.05 1423.33 218.225 1418.48 218.225H1401.53V288.5H1418.48C1423.33 288.5 1427.66 287.7 1431.46 286.1C1435.26 284.45 1438.46 282.125 1441.06 279.125C1443.71 276.075 1445.73 272.375 1447.13 268.025C1448.53 263.675 1449.23 258.775 1449.23 253.325ZM1518.64 218.225V243.725H1552.99V262.475H1518.64V288.5H1563.49V308H1493.14V198.725H1563.49V218.225H1518.64ZM1677.53 198.725V308H1664.33C1662.38 308 1660.73 307.7 1659.38 307.1C1658.08 306.45 1656.78 305.35 1655.48 303.8L1603.95 238.625C1604.15 240.575 1604.28 242.475 1604.33 244.325C1604.43 246.125 1604.48 247.825 1604.48 249.425V308H1582.13V198.725H1595.48C1596.58 198.725 1597.5 198.775 1598.25 198.875C1599 198.975 1599.68 199.175 1600.28 199.475C1600.88 199.725 1601.45 200.1 1602 200.6C1602.55 201.1 1603.18 201.775 1603.88 202.625L1655.85 268.25C1655.6 266.15 1655.43 264.125 1655.33 262.175C1655.23 260.175 1655.18 258.3 1655.18 256.55V198.725H1677.53Z" fill="black"/>
<defs>
<clipPath id="clip0_2566_2428">
<rect width="500.11" height="500" fill="white"/>
</clipPath>
</defs>
</svg>
